PathFileType	4	(X/Y/Z)	D:\luciana\Cultery.trc
DataRate	CameraRate	NumFrames	NumMarkers	Units	OrigDataRate	OrigDataStartFrame	OrigNumFrames
250.00	250.00	11	17	mm	250.00	242	2050
Frame#	Time	pelvisR			Trunk1			Trunk2			Trunk3			C7			shoulder			upperArm1			upperArm2			upperArm3			elbow			forearm1			forearm2			forearm3			wrist1			wrist2			wrist3			Hand			
		X1	Y1	Z1	X2	Y2	Z2	X3	Y3	Z3	X4	Y4	Z4	X5	Y5	Z5	X6	Y6	Z6	X7	Y7	Z7	X8	Y8	Z8	X9	Y9	Z9	X10	Y10	Z10	X11	Y11	Z11	X12	Y12	Z12	X13	Y13	Z13	X14	Y14	Z14	X15	Y15	Z15	X16	Y16	Z16	X17	Y17	Z17	

897	3.588000	1721.211314	650.742292	688.241959	1614.304423	854.132056	939.518094	1645.620704	764.711499	922.039568	1556.070566	797.445238	928.907871	1552.088141	1130.379200	837.750494	1722.212791	1064.721465	762.409866	1830.033541	924.998999	655.947089	1805.261850	878.700316	713.208556	1760.906816	950.988472	623.735905	1803.400993	820.656300	570.020318	1834.870934	800.479472	489.145517	1803.039670	735.783935	527.603269	1781.701922	849.556923	487.573147	1761.494160	822.942734	355.742902	1784.743667	747.058868	364.295095	1693.179846	828.123093	381.391406	1736.317873	776.713490	270.085275	
898	3.592000	1721.209407	650.744021	688.233018	1614.332199	854.147077	939.490795	1645.652294	764.728367	922.021031	1556.118369	797.478557	928.916693	1552.129269	1130.380392	837.722063	1722.178817	1064.677715	762.215734	1829.828262	925.072074	655.492008	1805.116296	878.696799	712.727547	1760.682702	951.137245	623.380184	1803.060651	820.856988	569.403887	1834.474802	800.623357	488.597721	1802.702904	735.965014	527.025461	1781.360626	849.709213	486.931324	1761.111498	822.934508	355.074286	1784.455061	747.108340	363.698632	1692.817450	828.084230	380.707890	1735.964894	776.624680	269.457340	
899	3.596000	1721.202850	650.742471	688.230455	1614.405394	854.178607	939.447999	1645.685554	764.740586	921.998620	1556.163073	797.518432	928.916097	1552.187681	1130.383253	837.682843	1722.153425	1064.640164	762.055635	1829.622626	925.152779	655.051470	1804.978132	878.689706	712.241411	1760.503054	951.363266	623.009443	1802.701354	821.039438	568.775594	1834.133983	800.860167	488.006562	1802.429676	736.120045	526.428580	1780.994296	849.862754	486.294359	1760.726333	822.917461	354.376644	1784.176230	747.139990	363.152206	1692.455173	828.040242	380.040556	1735.625029	776.528299	268.793344	
900	3.600000	1721.203566	650.735497	688.236475	1614.437342	854.203820	939.424932	1645.720005	764.756858	921.966255	1556.211591	797.559023	928.907514	1552.261472	1130.400538	837.644696	1722.118378	1064.590216	761.889160	1829.416037	925.212741	654.625893	1804.836154	878.676176	711.737633	1760.363817	951.671243	622.607291	1802.333236	821.213245	568.165779	1833.833456	801.124334	487.424612	1802.259803	736.232221	525.817692	1780.628443	850.026548	485.661268	1760.360003	822.890282	353.669524	1783.874869	747.151375	362.559140	1692.079306	827.999592	379.374743	1735.291600	776.437044	268.136382	
901	3.604000	1721.198916	650.723994	688.226223	1614.484549	854.224443	939.395905	1645.754099	764.764667	921.933532	1556.268454	797.588766	928.914845	1552.322388	1130.414248	837.602437	1722.073436	1064.546585	761.723101	1829.204082	925.258517	654.193461	1804.692507	878.652155	711.243868	1760.185719	951.822758	622.282863	1801.962137	821.384013	567.571163	1833.411217	801.190794	486.871839	1801.886082	736.433685	525.291622	1780.244350	850.189507	485.029399	1759.966135	822.902143	353.015661	1783.574581	747.171700	361.967951	1691.700339	827.950060	378.712058	1734.966993	776.348770	267.477274	
902	3.608000	1721.188188	650.716841	688.218713	1614.551067	854.243875	939.375341	1645.774007	764.785826	921.897054	1556.307793	797.615528	928.906500	1552.378535	1130.415797	837.558210	1722.034812	1064.510584	761.562109	1828.999400	925.302148	653.753102	1804.533362	878.631592	710.748792	1759.999275	951.938927	621.984124	1801.588416	821.550190	566.978931	1833.040237	801.358819	486.279219	1801.470995	736.672759	524.766445	1779.843688	850.341916	484.406650	1759.586930	822.930157	352.404833	1783.292651	747.204781	361.392379	1691.315770	827.884912	378.030449	1734.655857	776.221335	266.797841	
903	3.612000	1721.183538	650.716662	688.215435	1614.626169	854.266405	939.355969	1645.806789	764.811993	921.884000	1556.342483	797.640920	928.903639	1552.431583	1130.419731	837.510943	1722.001791	1064.455628	761.388004	1828.785658	925.338149	653.293133	1804.367185	878.615081	710.266888	1759.819388	952.053010	621.680617	1801.198244	821.721971	566.390634	1832.671285	801.535845	485.661507	1801.268578	736.823082	524.148345	1779.436827	850.483954	483.782142	1759.235024	822.921097	351.756901	1783.015370	747.222304	360.785306	1690.935493	827.820837	377.350628	1734.331012	776.087344	266.136557	
904	3.616000	1721.182108	650.714457	688.218176	1614.665270	854.303598	939.322412	1645.839453	764.831781	921.869636	1556.376100	797.660649	928.903103	1552.490234	1130.427718	837.458253	1721.969247	1064.402938	761.203647	1828.572273	925.377250	652.808011	1804.202318	878.588438	709.789336	1759.652138	952.165246	621.378303	1800.802231	821.895838	565.791011	1832.343936	801.792741	485.022664	1800.977588	737.014234	523.591518	1779.017687	850.636482	483.168334	1758.842111	822.883487	351.055264	1782.754302	747.244954	360.206753	1690.546036	827.763557	376.686931	1733.984709	775.947809	265.479445	
905	3.620000	1721.181154	650.718451	688.213468	1614.714146	854.326427	939.296603	1645.869970	764.836192	921.852112	1556.420445	797.682643	928.890824	1552.523375	1130.436897	837.422609	1721.928954	1064.356446	761.021197	1828.703523	925.177097	652.475297	1804.027081	878.561139	709.328115	1759.471893	952.272952	621.085882	1799.746633	821.752787	565.013885	1832.071185	802.169323	484.391272	1800.666571	737.229943	523.048520	1777.518272	850.590229	482.464910	1758.457303	822.853684	350.387245	1782.480121	747.290432	359.641999	1690.137386	827.677906	376.037300	1733.626485	775.824904	264.869273	
906	3.624000	1721.172333	650.719404	688.210249	1614.729881	854.336381	939.263165	1645.908237	764.856577	921.828270	1556.450367	797.700644	928.885400	1552.570343	1130.439281	837.387025	1721.892595	1064.322710	760.846674	1829.277515	924.707770	652.357459	1803.856254	878.548682	708.871961	1759.263635	952.390969	620.776772	1797.863722	821.230888	564.061165	1831.720591	802.405477	483.821601	1800.355077	737.439752	522.495031	1774.662256	850.282371	481.612474	1758.081794	822.831631	349.740267	1782.205582	747.349143	359.065056	1689.731240	827.582121	375.399470	1733.253241	775.683343	264.268756	
907	3.628000	1721.168160	650.716782	688.195944	1614.748359	854.337811	939.236581	1645.926118	764.879882	921.795130	1556.474924	797.718644	928.866744	1552.639842	1130.444527	837.349892	1721.850157	1064.285874	760.672569	1829.258442	924.611688	652.027369	1803.697228	878.540576	708.400249	1759.042382	952.496707	620.441079	1797.153115	821.261704	563.392103	1831.331253	802.599907	483.219922	1800.054789	737.640083	521.944463	1773.623943	850.303769	480.922312	1757.712245	822.805226	349.081397	1781.933427	747.398734	358.498126	1689.339876	827.493429	374.744147	1732.892871	775.540650	263.693124	
